<svg width="14" height="16" viewBox="0 0 14 16" fill="none" xmlns="http://www.w3.org/2000/svg">
<path d="M13.3593 6.55C13.3593 6.55 12.6562 7.25 11.4609 8.075C11.1328 6.05 10.2187 3.55 8.43745 0.5C8.43745 0.5 7.85152 3.775 5.9062 6.85C5.06245 5.45 4.68745 4.35 4.68745 4.35C-1.4063 10.875 3.6562 15.5 6.8437 15.5C10.9218 15.5 14.5078 13.4 13.3593 6.55" fill="#FF9D33"/>
<path d="M10.9453 12.35C11.2969 11.525 11.5547 10.45 11.6016 9.1C11.6016 9.1 11.1094 9.55 10.2656 10.125C10.0312 8.775 9.39844 7.125 8.15625 5.075C8.15625 5.075 7.75781 7.25 6.39844 9.325C5.8125 8.4 5.55469 7.65 5.55469 7.65C4.54688 9.35 4.14844 10.7 4.125 11.775C3.5625 11.55 3.21094 11.375 3.21094 11.375C4.17187 14.425 6.16406 15.1 7.05469 15.1C8.64844 15.1 10.2656 14.6 11.8594 12.175C11.8594 12.15 11.5078 12.25 10.9453 12.35" fill="#FFCE31"/>
<path d="M5.13272 10.975C5.13272 10.975 5.78897 11.925 6.28115 11.7C6.28115 11.7 7.21865 10.125 8.57803 9.25C8.57803 9.25 8.29678 11.65 8.6249 12.075C9.04678 12.65 10.1952 11.45 10.1952 11.45C10.1952 12.875 8.74209 14.65 7.42959 14.65C6.16397 14.65 4.33584 13.1 5.13272 10.975" fill="#FFDF85"/>
<path d="M11.672 4.525C12.1641 3.775 12.4923 2.975 12.4923 2.975C13.3126 4.425 12.8204 5.3 12.4688 5.575C11.9766 5.975 11.1095 5.4 11.672 4.525M2.71883 4.275C2.22664 3.4 2.17976 2.3 2.17976 2.3C1.00789 4.175 1.4532 5.225 1.85164 5.525C2.36726 5.95 3.25789 5.3 2.71883 4.275ZM5.43758 2.325C5.50789 1.725 5.27351 1.125 5.27351 1.125C6.37508 1.9 6.37508 2.55 6.23445 2.825C6.02351 3.15 5.36726 3 5.43758 2.325Z" fill="#FF9D33"/>
</svg>
